<?xml version="1.0" encoding="UTF-8"?><svg id="a" xmlns="http://www.w3.org/2000/svg" xmlns:xlink="http://www.w3.org/1999/xlink" viewBox="0 0 2318.59 402.9"><defs><linearGradient id="b" x1="12.07" y1="0" x2="12.07" y2="371.73" gradientUnits="userSpaceOnUse"><stop offset="0" stop-color="#4800ac"/><stop offset=".2" stop-color="#4b00a8"/><stop offset=".36" stop-color="#55039e"/><stop offset=".52" stop-color="#66088d"/><stop offset=".66" stop-color="#7e0f76"/><stop offset=".8" stop-color="#9d1857"/><stop offset=".93" stop-color="#c32232"/><stop offset="1" stop-color="#da291c"/></linearGradient><linearGradient id="c" x1="36.2" y1="402.9" x2="36.2" y2="31.17" gradientUnits="userSpaceOnUse"><stop offset="0" stop-color="#4800ac"/><stop offset=".2" stop-color="#4b00a8"/><stop offset=".37" stop-color="#55039e"/><stop offset=".52" stop-color="#66088e"/><stop offset=".66" stop-color="#7d0f76"/><stop offset=".8" stop-color="#9c1758"/><stop offset=".93" stop-color="#c12233"/><stop offset="1" stop-color="#da291c"/></linearGradient><linearGradient id="d" x1="1102.16" x2="1102.16" xlink:href="#b"/><linearGradient id="e" x1="1126.3" x2="1126.3" xlink:href="#c"/></defs><path d="M179.91,31.68c5.78,2.21,11.43,5.6,16.97,10.15l-12.36,14.39c-7.5-6.02-15.37-9.04-23.61-9.04-9.47,0-17.06,3.81-22.78,11.44-5.72,7.63-8.58,19.62-8.58,35.97s2.83,27.85,8.48,35.6c5.65,7.75,13.28,11.62,22.87,11.62,5.04,0,9.53-.89,13.46-2.67,3.93-1.78,8.12-4.33,12.54-7.65l11.44,14.39c-4.31,4.43-9.75,8.12-16.32,11.07-6.58,2.95-13.93,4.43-22.04,4.43-11.07,0-20.84-2.58-29.33-7.75-8.48-5.17-15.06-12.76-19.73-22.78-4.68-10.02-7.01-22.1-7.01-36.24s2.43-25.82,7.29-35.78c4.86-9.96,11.5-17.52,19.92-22.69,8.42-5.17,17.92-7.75,28.5-7.75,7.75,0,14.51,1.11,20.29,3.32Z" style="fill:#4800ac;"/><path d="M286.89,158.59l-7.93-29.51h-42.24l-7.93,29.51h-25.27l39.66-127.46h30.06l39.47,127.46h-25.83ZM241.52,110.63h32.46l-16.23-60.87-16.23,60.87Z" style="fill:#4800ac;"/><path d="M351.26,31.13v127.46h-24.35V31.13h24.35Z" style="fill:#4800ac;"/><path d="M441.28,32.24c6.64,2.58,12.85,6.52,18.63,11.81l-11.99,13.83c-4.55-3.81-9.13-6.58-13.74-8.3-4.61-1.72-9.56-2.58-14.85-2.58-5.9,0-10.67,1.32-14.29,3.97-3.63,2.65-5.44,6.36-5.44,11.16,0,3.2.71,5.84,2.12,7.93,1.41,2.09,3.96,4.06,7.66,5.9,3.69,1.84,9.16,3.87,16.42,6.09,12.54,3.94,21.98,8.83,28.31,14.66,6.33,5.84,9.5,14.36,9.5,25.55,0,7.63-1.94,14.39-5.81,20.29s-9.44,10.51-16.69,13.83c-7.26,3.32-15.86,4.98-25.83,4.98s-18.42-1.57-26.1-4.7c-7.69-3.14-14.3-7.41-19.83-12.82l12.54-14.02c4.92,4.18,10.02,7.35,15.31,9.5,5.29,2.15,11.13,3.23,17.52,3.23,7.01,0,12.67-1.66,16.97-4.98,4.3-3.32,6.45-7.99,6.45-14.02,0-3.69-.74-6.73-2.21-9.13s-4-4.55-7.56-6.46c-3.57-1.91-8.73-3.9-15.5-5.99-13.53-4.18-23.31-9.22-29.33-15.13-6.03-5.9-9.04-13.65-9.04-23.24,0-7.01,1.85-13.16,5.53-18.45,3.69-5.29,8.82-9.41,15.4-12.36,6.58-2.95,14.05-4.43,22.41-4.43,8.97,0,16.78,1.29,23.43,3.87Z" style="fill:#4800ac;"/><path d="M508.78,31.13v127.46h-24.35V31.13h24.35Z" style="fill:#4800ac;"/><path d="M126.49,239.23h-9.5v25.93h-8.44v-61.19h16.08c7.64,0,13.42,1.45,17.36,4.35,3.93,2.9,5.91,7.22,5.91,12.97,0,4.26-1.1,7.73-3.29,10.39-2.19,2.66-5.51,4.68-9.95,6.04l16.52,27.44h-10.03l-14.65-25.93ZM125.51,232.74c4.44,0,7.79-.9,10.04-2.71s3.38-4.72,3.38-8.75c0-3.79-1.14-6.53-3.42-8.21-2.28-1.69-5.94-2.53-10.97-2.53h-7.55v22.2h8.53Z"/><path d="M195.41,203.97l-.98,6.75h-23.71v19.98h20.6v6.75h-20.6v20.96h25.4v6.75h-33.84v-61.19h33.13Z"/><path d="M234.49,204.63c2.9,1.15,5.71,2.95,8.44,5.37l-4.62,5.15c-2.31-1.83-4.57-3.18-6.79-4.04s-4.6-1.29-7.15-1.29c-3.2,0-5.83.74-7.9,2.22-2.07,1.48-3.11,3.64-3.11,6.48,0,1.78.35,3.27,1.07,4.49.71,1.21,2.03,2.32,3.95,3.33,1.92,1.01,4.72,2.07,8.39,3.2,3.85,1.19,7.04,2.46,9.59,3.82,2.55,1.36,4.61,3.24,6.17,5.64,1.57,2.4,2.36,5.43,2.36,9.1s-.88,6.69-2.62,9.41c-1.75,2.72-4.26,4.86-7.55,6.39-3.29,1.54-7.18,2.31-11.68,2.31-8.47,0-15.39-2.63-20.78-7.9l4.62-5.15c2.49,2.01,5,3.54,7.55,4.57s5.39,1.55,8.53,1.55c3.79,0,6.93-.93,9.41-2.8,2.49-1.86,3.73-4.57,3.73-8.13,0-2.01-.39-3.69-1.16-5.02-.77-1.33-2.09-2.53-3.95-3.6-1.86-1.06-4.57-2.13-8.12-3.2-6.28-1.89-10.87-4.17-13.77-6.84s-4.35-6.27-4.35-10.83c0-3.08.81-5.83,2.44-8.26,1.63-2.43,3.91-4.32,6.84-5.68,2.93-1.36,6.26-2.04,9.99-2.04,4.08,0,7.58.58,10.48,1.73Z"/><path d="M290.44,203.97l-.98,6.75h-23.71v19.98h20.6v6.75h-20.6v20.96h25.4v6.75h-33.84v-61.19h33.13Z"/><path d="M337.42,265.16l-4.62-15.36h-23.18l-4.62,15.36h-8.53l19.63-61.19h10.66l19.54,61.19h-8.88ZM311.66,242.96h19.09l-9.5-31.97-9.59,31.97Z"/><path d="M373.65,239.23h-9.5v25.93h-8.44v-61.19h16.08c7.64,0,13.42,1.45,17.36,4.35,3.93,2.9,5.91,7.22,5.91,12.97,0,4.26-1.1,7.73-3.29,10.39-2.19,2.66-5.51,4.68-9.95,6.04l16.52,27.44h-10.03l-14.65-25.93ZM372.67,232.74c4.44,0,7.79-.9,10.04-2.71s3.38-4.72,3.38-8.75c0-3.79-1.14-6.53-3.42-8.21-2.28-1.69-5.94-2.53-10.97-2.53h-7.55v22.2h8.53Z"/><path d="M439.33,204.32c2.52.95,5.08,2.49,7.68,4.62l-4.62,5.42c-3.73-3.02-7.67-4.53-11.81-4.53-5.09,0-9.19,1.95-12.3,5.86s-4.66,10.18-4.66,18.83,1.54,14.61,4.62,18.61,7.16,5.99,12.26,5.99c2.6,0,4.88-.44,6.84-1.33s4.03-2.13,6.22-3.73l4.17,5.33c-1.9,1.95-4.32,3.58-7.28,4.89-2.96,1.3-6.37,1.95-10.21,1.95-4.97,0-9.4-1.23-13.28-3.69-3.88-2.46-6.9-6.07-9.06-10.83-2.16-4.77-3.24-10.49-3.24-17.19s1.13-12.42,3.38-17.18c2.25-4.77,5.3-8.36,9.15-10.79,3.85-2.43,8.14-3.64,12.88-3.64,3.67,0,6.76.47,9.28,1.42Z"/><path d="M492.57,265.16v-28.69h-25.75v28.69h-8.44v-61.19h8.44v25.58h25.75v-25.58h8.44v61.19h-8.44Z"/><path d="M575.96,208.72c4.15,3.17,6.22,7.89,6.22,14.17,0,6.69-2.16,11.66-6.48,14.92-4.32,3.26-10.07,4.88-17.23,4.88h-7.73v22.47h-8.44v-61.19h16.08c7.58,0,13.44,1.58,17.58,4.75ZM569.35,233.19c2.58-1.89,3.86-5.3,3.86-10.21,0-4.38-1.29-7.55-3.86-9.5-2.58-1.95-6.26-2.93-11.06-2.93h-7.55v25.49h7.37c4.92,0,8.66-.95,11.24-2.84Z"/><path d="M611.84,239.23h-9.5v25.93h-8.44v-61.19h16.08c7.64,0,13.42,1.45,17.36,4.35,3.93,2.9,5.91,7.22,5.91,12.97,0,4.26-1.1,7.73-3.29,10.39-2.19,2.66-5.51,4.68-9.95,6.04l16.52,27.44h-10.03l-14.65-25.93ZM610.86,232.74c4.44,0,7.79-.9,10.04-2.71s3.38-4.72,3.38-8.75c0-3.79-1.14-6.53-3.42-8.21-2.28-1.69-5.94-2.53-10.97-2.53h-7.55v22.2h8.53Z"/><path d="M682.23,206.59c3.88,2.46,6.9,6.05,9.06,10.79,2.16,4.74,3.24,10.48,3.24,17.23s-1.08,12.31-3.24,17.05c-2.16,4.74-5.18,8.35-9.06,10.83-3.88,2.49-8.39,3.73-13.54,3.73s-9.67-1.21-13.54-3.64c-3.88-2.43-6.9-6.01-9.06-10.75-2.16-4.74-3.24-10.45-3.24-17.14s1.08-12.26,3.24-17.05c2.16-4.8,5.19-8.45,9.1-10.97,3.91-2.52,8.41-3.77,13.5-3.77s9.67,1.23,13.54,3.69ZM656.25,215.87c-2.96,4.03-4.44,10.3-4.44,18.83s1.49,14.68,4.49,18.65c2.99,3.97,7.12,5.95,12.39,5.95,11.25,0,16.87-8.23,16.87-24.69s-5.63-24.78-16.87-24.78c-5.33,0-9.47,2.01-12.43,6.04Z"/><path d="M740.84,204.54c2.81,1.1,5.61,2.8,8.39,5.11l-4.97,5.15c-2.19-1.78-4.29-3.05-6.31-3.82-2.01-.77-4.38-1.15-7.1-1.15-3.14,0-6.02.84-8.66,2.53-2.64,1.69-4.78,4.38-6.44,8.08-1.66,3.7-2.49,8.39-2.49,14.08,0,8.59,1.41,14.86,4.22,18.83,2.81,3.97,6.97,5.95,12.48,5.95,4.5,0,8.38-.92,11.63-2.75v-18.47h-10.83l-.98-6.84h20.16v29.57c-6.34,3.61-13,5.42-19.98,5.42-8.05,0-14.34-2.69-18.87-8.08-4.53-5.39-6.79-13.26-6.79-23.62,0-6.63,1.2-12.33,3.6-17.1,2.4-4.77,5.63-8.38,9.68-10.83s8.48-3.69,13.28-3.69c3.85,0,7.18.55,9.99,1.64Z"/><path d="M782.27,239.23h-9.5v25.93h-8.44v-61.19h16.08c7.64,0,13.42,1.45,17.36,4.35,3.93,2.9,5.91,7.22,5.91,12.97,0,4.26-1.1,7.73-3.29,10.39-2.19,2.66-5.51,4.68-9.95,6.04l16.52,27.44h-10.03l-14.65-25.93ZM781.29,232.74c4.44,0,7.79-.9,10.04-2.71s3.38-4.72,3.38-8.75c0-3.79-1.14-6.53-3.42-8.21-2.28-1.69-5.94-2.53-10.97-2.53h-7.55v22.2h8.53Z"/><path d="M850.65,265.16l-4.62-15.36h-23.18l-4.62,15.36h-8.53l19.63-61.19h10.66l19.54,61.19h-8.88ZM824.9,242.96h19.09l-9.5-31.97-9.59,31.97Z"/><path d="M923.66,265.16h-8.17l-2.13-27.62c-.89-10.84-1.39-19.15-1.51-24.96l-13.23,45.65h-7.9l-13.94-45.74c0,7.4-.39,15.96-1.15,25.67l-2.04,27h-8l5.06-61.19h11.37l12.88,44.49,12.25-44.49h11.46l5.06,61.19Z"/><path d="M141.15,371.73l-4.62-15.36h-23.18l-4.62,15.36h-8.53l19.63-61.19h10.66l19.54,61.19h-8.88ZM115.39,349.53h19.09l-9.5-31.97-9.59,31.97Z"/><path d="M191.15,310.54l-.89,7.19h-16.96v54h-8.44v-54h-17.41v-7.19h43.69Z"/><path d="M255.14,310.9c2.52.95,5.08,2.49,7.68,4.62l-4.62,5.42c-3.73-3.02-7.67-4.53-11.81-4.53-5.09,0-9.19,1.95-12.3,5.86-3.11,3.91-4.66,10.18-4.66,18.83s1.54,14.61,4.62,18.61,7.16,5.99,12.26,5.99c2.6,0,4.88-.44,6.84-1.33s4.03-2.13,6.22-3.73l4.17,5.33c-1.9,1.95-4.32,3.58-7.28,4.89-2.96,1.3-6.37,1.95-10.21,1.95-4.97,0-9.4-1.23-13.28-3.69-3.88-2.46-6.9-6.07-9.06-10.83-2.16-4.77-3.24-10.49-3.24-17.19s1.13-12.42,3.38-17.18c2.25-4.77,5.3-8.36,9.15-10.79,3.85-2.43,8.14-3.64,12.88-3.64,3.67,0,6.76.47,9.28,1.42Z"/><path d="M282.62,310.54v61.19h-8.44v-61.19h8.44Z"/><path d="M300.39,371.73v-61.19h32.5l-.98,6.75h-23.09v20.87h19.98v6.66h-19.98v26.91h-8.44Z"/><path d="M372.14,371.73l-4.62-15.36h-23.18l-4.62,15.36h-8.53l19.63-61.19h10.66l19.54,61.19h-8.88ZM346.39,349.53h19.09l-9.5-31.97-9.59,31.97Z"/><path d="M408.38,345.8h-9.5v25.93h-8.44v-61.19h16.08c7.64,0,13.42,1.45,17.36,4.35,3.93,2.9,5.91,7.22,5.91,12.97,0,4.26-1.1,7.73-3.29,10.39-2.19,2.66-5.51,4.68-9.95,6.04l16.52,27.44h-10.03l-14.65-25.93ZM407.4,339.32c4.44,0,7.79-.9,10.04-2.71s3.38-4.72,3.38-8.75c0-3.79-1.14-6.53-3.42-8.21-2.28-1.69-5.94-2.53-10.97-2.53h-7.55v22.2h8.53Z"/><path d="M1233.42,35.24c4.15,3.17,6.22,7.89,6.22,14.17,0,6.69-2.16,11.66-6.48,14.92-4.32,3.26-10.07,4.88-17.23,4.88h-7.73v22.47h-8.44V30.49h16.08c7.58,0,13.44,1.58,17.58,4.75ZM1226.8,59.71c2.58-1.89,3.86-5.3,3.86-10.21,0-4.38-1.29-7.55-3.86-9.5-2.58-1.95-6.26-2.93-11.06-2.93h-7.55v25.49h7.37c4.92,0,8.66-.95,11.24-2.84Z"/><path d="M1269.3,65.75h-9.5v25.93h-8.44V30.49h16.08c7.64,0,13.42,1.45,17.36,4.35,3.93,2.9,5.91,7.22,5.91,12.97,0,4.26-1.1,7.73-3.29,10.39-2.19,2.66-5.51,4.68-9.95,6.04l16.52,27.44h-10.03l-14.65-25.93ZM1268.32,59.26c4.44,0,7.79-.9,10.04-2.71s3.38-4.72,3.38-8.75c0-3.79-1.14-6.53-3.42-8.21-2.28-1.69-5.94-2.53-10.97-2.53h-7.55v22.2h8.53Z"/><path d="M1339.69,33.11c3.88,2.46,6.9,6.05,9.06,10.79,2.16,4.74,3.24,10.48,3.24,17.23s-1.08,12.31-3.24,17.05c-2.16,4.74-5.18,8.35-9.06,10.83-3.88,2.49-8.39,3.73-13.54,3.73s-9.67-1.21-13.54-3.64c-3.88-2.43-6.9-6.01-9.06-10.75-2.16-4.74-3.24-10.45-3.24-17.14s1.08-12.26,3.24-17.05c2.16-4.8,5.19-8.45,9.1-10.97,3.91-2.52,8.41-3.77,13.5-3.77s9.67,1.23,13.54,3.69ZM1313.71,42.39c-2.96,4.03-4.44,10.3-4.44,18.83s1.49,14.68,4.49,18.65c2.99,3.97,7.12,5.95,12.39,5.95,11.25,0,16.87-8.23,16.87-24.69s-5.63-24.78-16.87-24.78c-5.33,0-9.47,2.01-12.43,6.04Z"/><path d="M1398.3,31.06c2.81,1.1,5.61,2.8,8.39,5.11l-4.97,5.15c-2.19-1.78-4.29-3.05-6.31-3.82-2.01-.77-4.38-1.15-7.1-1.15-3.14,0-6.02.84-8.66,2.53-2.64,1.69-4.78,4.38-6.44,8.08-1.66,3.7-2.49,8.39-2.49,14.08,0,8.59,1.41,14.86,4.22,18.83,2.81,3.97,6.97,5.95,12.48,5.95,4.5,0,8.38-.92,11.63-2.75v-18.47h-10.83l-.98-6.84h20.16v29.57c-6.34,3.61-13,5.42-19.98,5.42-8.05,0-14.34-2.69-18.87-8.08-4.53-5.39-6.79-13.26-6.79-23.62,0-6.63,1.2-12.33,3.6-17.1,2.4-4.77,5.63-8.38,9.68-10.83s8.48-3.69,13.28-3.69c3.85,0,7.18.55,9.99,1.64Z"/><path d="M1439.73,65.75h-9.5v25.93h-8.44V30.49h16.08c7.64,0,13.42,1.45,17.36,4.35,3.93,2.9,5.91,7.22,5.91,12.97,0,4.26-1.1,7.73-3.29,10.39-2.19,2.66-5.51,4.68-9.95,6.04l16.52,27.44h-10.03l-14.65-25.93ZM1438.75,59.26c4.44,0,7.79-.9,10.04-2.71s3.38-4.72,3.38-8.75c0-3.79-1.14-6.53-3.42-8.21-2.28-1.69-5.94-2.53-10.97-2.53h-7.55v22.2h8.53Z"/><path d="M1508.11,91.68l-4.62-15.36h-23.18l-4.62,15.36h-8.53l19.63-61.19h10.66l19.54,61.19h-8.88ZM1482.36,69.48h19.09l-9.5-31.97-9.59,31.97Z"/><path d="M1581.11,91.68h-8.17l-2.13-27.62c-.89-10.84-1.39-19.15-1.51-24.96l-13.23,45.65h-7.9l-13.94-45.74c0,7.4-.39,15.96-1.15,25.67l-2.04,27h-8l5.06-61.19h11.37l12.88,44.49,12.25-44.49h11.46l5.06,61.19Z"/><path d="M1650.21,91.68h-8.17l-2.13-27.62c-.89-10.84-1.39-19.15-1.51-24.96l-13.23,45.65h-7.9l-13.94-45.74c0,7.4-.39,15.96-1.15,25.67l-2.04,27h-8l5.06-61.19h11.37l12.88,44.49,12.25-44.49h11.46l5.06,61.19Z"/><path d="M1697.72,30.49l-.98,6.75h-23.71v19.98h20.6v6.75h-20.6v20.96h25.4v6.75h-33.84V30.49h33.13Z"/><path d="M1770.68,36.93c5.6,4.29,8.39,12.24,8.39,23.84s-2.8,19.29-8.39,23.94c-5.59,4.65-12.39,6.97-20.38,6.97h-14.65V30.49h12.79c9.23,0,16.65,2.15,22.25,6.44ZM1744.08,37.24v47.78h6.84c5.69,0,10.3-1.75,13.85-5.24,3.55-3.49,5.33-9.83,5.33-19.01,0-6.45-.92-11.41-2.75-14.88-1.84-3.46-4.17-5.77-7.02-6.93s-6.19-1.73-10.04-1.73h-6.22Z"/><path d="M1825.96,30.49l-.98,6.75h-23.71v19.98h20.6v6.75h-20.6v20.96h25.4v6.75h-33.84V30.49h33.13Z"/><path d="M1881.82,65.75h-9.5v25.93h-8.44V30.49h16.08c7.64,0,13.42,1.45,17.36,4.35,3.93,2.9,5.91,7.22,5.91,12.97,0,4.26-1.1,7.73-3.29,10.39-2.19,2.66-5.51,4.68-9.95,6.04l16.52,27.44h-10.03l-14.65-25.93ZM1880.85,59.26c4.44,0,7.79-.9,10.04-2.71s3.38-4.72,3.38-8.75c0-3.79-1.14-6.53-3.42-8.21-2.28-1.69-5.94-2.53-10.97-2.53h-7.55v22.2h8.53Z"/><path d="M1950.74,30.49l-.98,6.75h-23.71v19.98h20.6v6.75h-20.6v20.96h25.4v6.75h-33.84V30.49h33.13Z"/><path d="M1994.75,30.84c2.52.95,5.08,2.49,7.68,4.62l-4.62,5.42c-3.73-3.02-7.67-4.53-11.81-4.53-5.09,0-9.19,1.95-12.3,5.86s-4.66,10.18-4.66,18.83,1.54,14.61,4.62,18.61,7.16,5.99,12.26,5.99c2.6,0,4.88-.44,6.84-1.33s4.03-2.13,6.22-3.73l4.17,5.33c-1.9,1.95-4.32,3.58-7.28,4.89-2.96,1.3-6.37,1.95-10.21,1.95-4.97,0-9.4-1.23-13.28-3.69-3.88-2.46-6.9-6.07-9.06-10.83-2.16-4.77-3.24-10.49-3.24-17.19s1.13-12.42,3.38-17.18c2.25-4.77,5.3-8.36,9.15-10.79,3.85-2.43,8.14-3.64,12.88-3.64,3.67,0,6.76.47,9.28,1.42Z"/><path d="M2047.99,91.68v-28.69h-25.75v28.69h-8.44V30.49h8.44v25.58h25.75v-25.58h8.44v61.19h-8.44Z"/><path d="M2107.32,30.49l-.98,6.75h-23.71v19.98h20.6v6.75h-20.6v20.96h25.4v6.75h-33.84V30.49h33.13Z"/><path d="M2139.64,65.75h-9.5v25.93h-8.44V30.49h16.08c7.64,0,13.42,1.45,17.36,4.35,3.93,2.9,5.91,7.22,5.91,12.97,0,4.26-1.1,7.73-3.29,10.39-2.19,2.66-5.51,4.68-9.95,6.04l16.52,27.44h-10.03l-14.65-25.93ZM2138.66,59.26c4.44,0,7.79-.9,10.04-2.71s3.38-4.72,3.38-8.75c0-3.79-1.14-6.53-3.42-8.21-2.28-1.69-5.94-2.53-10.97-2.53h-7.55v22.2h8.53Z"/><path d="M2205.32,30.84c2.52.95,5.08,2.49,7.68,4.62l-4.62,5.42c-3.73-3.02-7.67-4.53-11.81-4.53-5.09,0-9.19,1.95-12.3,5.86s-4.66,10.18-4.66,18.83,1.54,14.61,4.62,18.61,7.16,5.99,12.26,5.99c2.6,0,4.88-.44,6.84-1.33s4.03-2.13,6.22-3.73l4.17,5.33c-1.9,1.95-4.32,3.58-7.28,4.89-2.96,1.3-6.37,1.95-10.21,1.95-4.97,0-9.4-1.23-13.28-3.69-3.88-2.46-6.9-6.07-9.06-10.83-2.16-4.77-3.24-10.49-3.24-17.19s1.13-12.42,3.38-17.18c2.25-4.77,5.3-8.36,9.15-10.79,3.85-2.43,8.14-3.64,12.88-3.64,3.67,0,6.76.47,9.28,1.42Z"/><path d="M2258.56,91.68v-28.69h-25.75v28.69h-8.44V30.49h8.44v25.58h25.75v-25.58h8.44v61.19h-8.44Z"/><path d="M2317.88,30.49l-.98,6.75h-23.71v19.98h20.6v6.75h-20.6v20.96h25.4v6.75h-33.84V30.49h33.13Z"/><path d="M1277.3,151.21c11.87,8.98,17.8,25.52,17.8,49.62s-5.84,40.24-17.52,49.89c-11.68,9.65-26.5,14.48-44.46,14.48h-34.68v-127.46h31.36c19.8,0,35.63,4.49,47.5,13.46ZM1222.79,156v90.94h11.99c10.82,0,19.3-3.35,25.45-10.05,6.15-6.7,9.22-18.72,9.22-36.06,0-12.05-1.57-21.36-4.7-27.94-3.13-6.58-7.26-11.04-12.36-13.37-5.11-2.33-11.22-3.51-18.35-3.51h-11.25Z" style="fill:#4800ac;"/><path d="M1388.25,137.74l-2.58,18.08h-47.04v35.6h40.95v18.08h-40.95v37.44h50.36v18.26h-74.7v-127.46h73.97Z" style="fill:#4800ac;"/><path d="M1482.5,137.74v107.54h51.09l-2.77,19.92h-72.67v-127.46h24.35Z" style="fill:#4800ac;"/><path d="M1542.73,128.8c2.64,2.52,3.96,5.69,3.96,9.5,0,1.97-.31,4-.92,6.09-.62,2.09-1.72,4.86-3.32,8.3l-11.99,25.09h-13.28l7.56-28.41c-3.94-2.7-5.9-6.39-5.9-11.07,0-3.81,1.35-6.98,4.06-9.5,2.7-2.52,6.02-3.78,9.96-3.78s7.22,1.26,9.87,3.78Z" style="fill:#4800ac;"/><path d="M1593.54,137.74v127.46h-24.35v-127.46h24.35Z" style="fill:#4800ac;"/><path d="M1692.4,138.3c5.78,2.21,11.43,5.6,16.97,10.15l-12.36,14.39c-7.5-6.02-15.37-9.04-23.61-9.04-9.47,0-17.06,3.81-22.78,11.44-5.72,7.63-8.58,19.62-8.58,35.97s2.83,27.85,8.48,35.6c5.65,7.75,13.28,11.62,22.87,11.62,5.04,0,9.53-.89,13.46-2.67,3.93-1.78,8.12-4.33,12.54-7.65l11.44,14.39c-4.31,4.43-9.75,8.12-16.32,11.07-6.58,2.95-13.93,4.43-22.04,4.43-11.07,0-20.84-2.58-29.33-7.75-8.48-5.17-15.06-12.76-19.73-22.78-4.68-10.02-7.01-22.1-7.01-36.24s2.43-25.82,7.29-35.78c4.86-9.96,11.5-17.52,19.92-22.69,8.42-5.17,17.92-7.75,28.5-7.75,7.75,0,14.51,1.11,20.29,3.32Z" style="fill:#4800ac;"/><path d="M1793.85,138.85c6.64,2.58,12.85,6.52,18.63,11.81l-11.99,13.83c-4.55-3.81-9.13-6.58-13.74-8.3-4.61-1.72-9.56-2.58-14.85-2.58-5.9,0-10.67,1.32-14.29,3.97-3.63,2.65-5.44,6.36-5.44,11.16,0,3.2.71,5.84,2.12,7.93,1.41,2.09,3.96,4.06,7.66,5.9,3.69,1.84,9.16,3.87,16.42,6.09,12.54,3.94,21.98,8.83,28.31,14.66,6.33,5.84,9.5,14.36,9.5,25.55,0,7.63-1.94,14.39-5.81,20.29s-9.44,10.51-16.69,13.83c-7.26,3.32-15.86,4.98-25.83,4.98s-18.42-1.57-26.1-4.7c-7.69-3.14-14.3-7.41-19.83-12.82l12.54-14.02c4.92,4.18,10.02,7.35,15.31,9.5,5.29,2.15,11.13,3.23,17.52,3.23,7.01,0,12.67-1.66,16.97-4.98,4.3-3.32,6.45-7.99,6.45-14.02,0-3.69-.74-6.73-2.21-9.13s-4-4.55-7.56-6.46c-3.57-1.91-8.73-3.9-15.5-5.99-13.53-4.18-23.31-9.22-29.33-15.13-6.03-5.9-9.04-13.65-9.04-23.24,0-7.01,1.85-13.16,5.53-18.45,3.69-5.29,8.82-9.41,15.4-12.36,6.58-2.95,14.05-4.43,22.41-4.43,8.97,0,16.78,1.29,23.43,3.87Z" style="fill:#4800ac;"/><path d="M1861.36,137.74v127.46h-24.35v-127.46h24.35Z" style="fill:#4800ac;"/><path d="M1958.75,265.2l-7.93-29.51h-42.24l-7.93,29.51h-25.27l39.66-127.46h30.06l39.47,127.46h-25.83ZM1913.38,217.24h32.46l-16.23-60.87-16.23,60.87Z" style="fill:#4800ac;"/><path d="M1232.36,371.77l-4.62-15.36h-23.18l-4.62,15.36h-8.53l19.63-61.19h10.66l19.54,61.19h-8.88ZM1206.6,349.57h19.09l-9.5-31.97-9.59,31.97Z"/><path d="M1291.68,352.15c0,4.09-.84,7.68-2.53,10.79-1.69,3.11-4.15,5.54-7.37,7.28-3.23,1.75-7.09,2.62-11.59,2.62-6.81,0-12.06-1.88-15.76-5.64s-5.55-8.78-5.55-15.05v-41.56h8.44v40.94c0,4.74,1.07,8.29,3.2,10.66,2.13,2.37,5.36,3.55,9.68,3.55s7.64-1.17,9.77-3.51c2.13-2.34,3.2-5.9,3.2-10.7v-40.94h8.53v41.56Z"/><path d="M1362.77,310.94c2.52.95,5.08,2.49,7.68,4.62l-4.62,5.42c-3.73-3.02-7.67-4.53-11.81-4.53-5.09,0-9.19,1.95-12.3,5.86s-4.66,10.18-4.66,18.83,1.54,14.61,4.62,18.61,7.16,5.99,12.26,5.99c2.6,0,4.88-.44,6.84-1.33s4.03-2.13,6.22-3.73l4.17,5.33c-1.9,1.95-4.32,3.58-7.28,4.89-2.96,1.3-6.37,1.95-10.21,1.95-4.97,0-9.4-1.23-13.28-3.69-3.88-2.46-6.9-6.07-9.06-10.83-2.16-4.77-3.24-10.49-3.24-17.19s1.13-12.42,3.38-17.18c2.25-4.77,5.3-8.36,9.15-10.79,3.85-2.43,8.14-3.64,12.88-3.64,3.67,0,6.76.47,9.28,1.42Z"/><path d="M1390.26,310.58v61.19h-8.44v-61.19h8.44Z"/><path d="M1408.02,371.77v-61.19h32.5l-.98,6.75h-23.09v20.87h19.98v6.66h-19.98v26.91h-8.44Z"/><path d="M1479.78,371.77l-4.62-15.36h-23.18l-4.62,15.36h-8.53l19.63-61.19h10.66l19.54,61.19h-8.88ZM1454.03,349.57h19.09l-9.5-31.97-9.59,31.97Z"/><path d="M1516.02,345.84h-9.5v25.93h-8.44v-61.19h16.08c7.64,0,13.42,1.45,17.36,4.35,3.93,2.9,5.91,7.22,5.91,12.97,0,4.26-1.1,7.73-3.29,10.39-2.19,2.66-5.51,4.68-9.95,6.04l16.52,27.44h-10.03l-14.65-25.93ZM1515.04,339.36c4.44,0,7.79-.9,10.04-2.71s3.38-4.72,3.38-8.75c0-3.79-1.14-6.53-3.42-8.21-2.28-1.69-5.94-2.53-10.97-2.53h-7.55v22.2h8.53Z"/><rect width="24.14" height="371.73" style="fill:url(#b);"/><rect x="24.14" y="31.17" width="24.14" height="371.73" style="fill:url(#c);"/><rect x="1090.09" width="24.14" height="371.73" style="fill:url(#d);"/><rect x="1114.23" y="31.17" width="24.14" height="371.73" style="fill:url(#e);"/></svg>